<?xml version="1.0" encoding="UTF-8"?>
<svg version="1.1" viewBox="0 0 600 400" xmlns="http://www.w3.org/2000/svg">

<g id="dpad">
	<path class="base" id="dpad-base" d="m80.4 110c-3.55 0-6.41 2.86-6.41 6.41v37.5h-37.5c-3.55 0-6.41 2.86-6.41 6.41v29.3c0 3.55 2.86 6.41 6.41 6.41h37.5v37.5c0 3.55 2.86 6.41 6.41 6.41h29.3c3.55 0 6.41-2.86 6.41-6.41v-37.5h37.5c3.55 0 6.41-2.86 6.41-6.41v-29.3c0-3.55-2.86-6.41-6.41-6.41h-37.5v-37.5c0-3.55-2.86-6.41-6.41-6.41z"/>
	<path class="hilight" id="dr-hilight" d="m116 154-21.1 21.1 21.1 21.1h37.5c3.55 0 6.41-2.86 6.41-6.41v-29.3c0-3.55-2.86-6.41-6.41-6.41z"/>
	<path class="hilight" id="dl-hilight" d="m36.4 154c-3.55 0-6.41 2.86-6.41 6.41v29.3c0 3.55 2.86 6.41 6.41 6.41h37.5l21.1-21.1-21.1-21.1z"/>
	<path class="hilight" id="du-hilight" d="m80.4 110c-3.55 0-6.41 2.86-6.41 6.41v37.5l21.1 21.1 21.1-21.1v-37.5c0-3.55-2.86-6.41-6.41-6.41z"/>
	<path class="hilight" id="dd-hilight" d="m73.9 196v37.5c0 3.55 2.86 6.41 6.41 6.41h29.3c3.55 0 6.41-2.86 6.41-6.41v-37.5l-21.1-21.1z"/>
	<path class="outline" id="dpad-outline" d="m80.4 110c-3.55 0-6.41 2.86-6.41 6.41v37.5h-37.5c-3.55 0-6.41 2.86-6.41 6.41v29.3c0 3.55 2.86 6.41 6.41 6.41h37.5v37.5c0 3.55 2.86 6.41 6.41 6.41h29.3c3.55 0 6.41-2.86 6.41-6.41v-37.5h37.5c3.55 0 6.41-2.86 6.41-6.41v-29.3c0-3.55-2.86-6.41-6.41-6.41h-37.5v-37.5c0-3.55-2.86-6.41-6.41-6.41z"/>
</g>

<g id="l1">
	<path class="base" id="l1-base" d="m172 30c3.81-0.356 7.14 2.59 7.47 6.61l0.557 6.81c0.328 4.02-2.47 7.54-6.28 7.9l-146 13.6c-3.81 0.356-7.14-2.59-7.47-6.61l-0.557-6.81c-0.328-4.02 2.47-7.54 6.28-7.9z"/>
	<path class="hilight" id="l1-hilight" d="m172 30c3.81-0.356 7.14 2.59 7.47 6.61l0.557 6.81c0.328 4.02-2.47 7.54-6.28 7.9l-146 13.6c-3.81 0.356-7.14-2.59-7.47-6.61l-0.557-6.81c-0.328-4.02 2.47-7.54 6.28-7.9z"/>
	<path class="outline" id="l1-outline" d="m172 30c3.81-0.356 7.14 2.59 7.47 6.61l0.557 6.81c0.328 4.02-2.47 7.54-6.28 7.9l-146 13.6c-3.81 0.356-7.14-2.59-7.47-6.61l-0.557-6.81c-0.328-4.02 2.47-7.54 6.28-7.9z"/>
</g>

<g id="r1">
	<path class="base" id="r1-base" d="m428 30c-3.81-0.356-7.14 2.59-7.47 6.61l-0.557 6.81c-0.328 4.02 2.47 7.54 6.28 7.9l146 13.6c3.81 0.356 7.14-2.59 7.47-6.61l0.557-6.81c0.328-4.02-2.47-7.54-6.28-7.9z"/>
	<path class="hilight" id="r1-hilight" d="m428 30c-3.81-0.356-7.14 2.59-7.47 6.61l-0.557 6.81c-0.328 4.02 2.47 7.54 6.28 7.9l146 13.6c3.81 0.356 7.14-2.59 7.47-6.61l0.557-6.81c0.328-4.02-2.47-7.54-6.28-7.9z"/>
	<path class="outline" id="r1-outline" d="m428 30c-3.81-0.356-7.14 2.59-7.47 6.61l-0.557 6.81c-0.328 4.02 2.47 7.54 6.28 7.9l146 13.6c3.81 0.356 7.14-2.59 7.47-6.61l0.557-6.81c0.328-4.02-2.47-7.54-6.28-7.9z"/>
</g>

<g id="b0">
	<circle class="base" id="b0-base" cx="472" cy="247" r="27.5"/>
	<circle class="hilight" id="b0-hilight" cx="472" cy="247" r="27.5"/>
	<circle class="outline" id="b0-outline" cx="472" cy="247" r="27.5"/>
</g>

<g id="b1">
	<circle class="base" id="b1-base" cx="422" cy="202" r="27.5"/>
	<circle class="hilight" id="b1-hilight" cx="422" cy="202" r="27.5"/>
	<circle class="outline" id="b1-outline" cx="422" cy="202" r="27.5"/>
</g>

<g id="rsd">
	<circle class="base" id="rsd-base" cx="520" cy="195" r="20"/>
	<circle class="hilight" id="rsd-hilight" cx="520" cy="195" r="20"/>
	<circle class="outline" id="rsd-outline" cx="520" cy="195" r="20"/>
</g>

<g id="rsl">
	<circle class="base" id="rsl-base" cx="480" cy="155" r="20"/>
	<circle class="hilight" id="rsl-hilight" cx="480" cy="155" r="20"/>
	<circle class="outline" id="rsl-outline" cx="480" cy="155" r="20"/>
</g>

<g id="rsu">
	<circle class="base" id="rsu-base" cx="520" cy="115" r="20"/>
	<circle class="hilight" id="rsu-hilight" cx="520" cy="115" r="20"/>
	<circle class="outline" id="rsu-outline" cx="520" cy="115" r="20"/>
</g>

<g id="rsr">
	<circle class="base" id="rsr-base" cx="560" cy="155" r="20"/>
	<circle class="hilight" id="rsr-hilight" cx="560" cy="155" r="20"/>
	<circle class="outline" id="rsr-outline" cx="560" cy="155" r="20"/>
</g>

<g id="start">
	<circle class="base" id="start-base" cx="300" cy="205" r="30"/>
	<circle class="hilight" id="start-hilight" cx="300" cy="205" r="30"/>
	<circle class="outline" id="start-outline" cx="300" cy="205" r="30"/>
</g>

<g id="ls-socket">
	<path class="base" id="ls-socket" d="m332 357-31.8 13.2-31.8-13.2-13.2-31.8 13.2-31.8 31.8-13.2 31.8 13.2 13.2 31.8z"/>
	<path class="outline" id="ls-socket-outline" d="m332 357-31.8 13.2-31.8-13.2-13.2-31.8 13.2-31.8 31.8-13.2 31.8 13.2 13.2 31.8z"/>
</g>

<g id="ls">
	<circle class="base" id="ls-base" cx="300" cy="325" r="35"/>
	<circle class="hilight" id="ls-hilight" cx="300" cy="325" r="35"/>
	<circle class="outline" id="ls-outline" cx="300" cy="325" r="35"/>
</g>

<g id="r2">
	<rect class="base" id="r2-base" x="270" y="50" width="60" height="95" rx="10" ry="10"/>
	<rect class="hilight" id="r2-hilight" x="270" y="50" width="60" height="95" rx="10" ry="10"/>
	<rect class="outline" id="r2-outline" x="270" y="50" width="60" height="95" rx="10" ry="10"/>
</g>

</svg>
